<svg width="104" height="145" viewBox="0 0 104 145" fill="none" xmlns="http://www.w3.org/2000/svg">
<path d="M41.8252 110.941C41.8252 110.941 48.2458 103.326 50.3723 96.9134C52.5071 90.501 55.7542 85.3072 62.0685 83.1643C68.3828 81.0296 77.2081 96.4472 74.8852 101.837C72.5623 107.227 65.2257 107.833 61.6023 108.593C57.979 109.362 52.8752 119.39 52.8752 119.39L41.8252 110.941Z" fill="#FFD5CF"/>
<path d="M62.0767 83.1642C61.3569 83.4096 60.678 83.6959 60.04 84.0149C61.5123 92.0059 63.369 99.9641 65.2829 107.89C68.9062 107.129 73.2166 105.739 74.8933 101.837C77.2162 96.4553 68.391 81.0295 62.0767 83.1642Z" fill="#E5A4A1"/>
<path d="M79.3184 134.055C79.6128 135.11 78.9994 136.198 77.9443 136.492C76.8892 136.787 75.8014 136.173 75.5069 135.118L47.7388 35.4965C47.4443 34.4414 48.0578 33.3535 49.1129 33.0591C50.168 32.7646 51.2558 33.3781 51.5502 34.4332L79.3184 134.055Z" fill="#AF9B48"/>
<path d="M65.2257 83.499C64.1624 84.5378 63.0745 85.5602 61.9785 86.5662L67.9248 107.897C69.3234 108.094 70.7384 108.249 72.1615 108.364L65.2257 83.499Z" fill="#917934"/>
<path d="M103.758 57.2525C104.731 60.745 102.686 64.3602 99.202 65.3335L22.9481 86.591C19.4556 87.5644 15.8404 85.5196 14.8671 82.0353L0.251036 29.5908C-0.722279 26.0983 1.32251 22.4831 4.80681 21.5098L81.0607 0.252257C84.5532 -0.721058 88.1684 1.32373 89.1417 4.80803L103.758 57.2525Z" fill="#F9F2D4"/>
<path opacity="0.5" d="M1.18317 24.0693C0.103523 25.6234 -0.305453 27.6191 0.242548 29.5821L14.8586 82.0266C15.8319 85.5191 19.4471 87.5557 22.9396 86.5824L99.1935 65.3248C99.8397 65.1449 100.429 64.875 100.96 64.5314L1.18317 24.0693Z" fill="#DDD6BA"/>
<path d="M4.64282 32.2897C3.66951 28.7972 5.71429 25.182 9.1986 24.2087L85.4607 2.95117C86.3768 2.69761 87.2928 2.65673 88.1762 2.77941C86.6221 0.57923 83.8085 -0.524956 81.0603 0.243881L4.80642 21.5014C1.31393 22.4747 -0.722674 26.0899 0.250641 29.5824L14.8667 82.0269C15.5865 84.6033 17.7458 86.3864 20.2322 86.7544C19.8069 86.1573 19.4716 85.4785 19.2671 84.7342L4.64282 32.2897Z" fill="#DDD6BA"/>
<path d="M65.4221 99.7025C65.4221 102.696 73.5031 104.16 75.826 101.935C78.1489 99.7025 77.2492 97.895 75.0081 97.3633C72.7588 96.8235 65.4221 97.6905 65.4221 99.7025Z" fill="#FFD5CF"/>
<path d="M66.2563 101.274C68.3747 103.13 73.9611 103.727 75.8259 101.936C76.3657 101.421 76.7256 100.93 76.9383 100.464C73.5521 101.838 69.8797 101.895 66.2563 101.274Z" fill="#E5A4A1"/>
<path d="M74.9999 99.3019C75.0244 99.441 75.0817 99.5636 75.1635 99.6782C75.5233 100.161 76.1858 100.341 76.652 99.8663C77.1673 99.351 76.9138 98.484 76.2349 98.2795C76.0959 98.2386 75.965 98.2141 75.8178 98.2223C75.2452 98.2632 74.8935 98.7376 74.9999 99.3019Z" fill="#FFE5E3"/>
<path d="M62.1667 95.4337C62.1667 99.237 75.785 98.1247 77.8952 96.268C80.0054 94.4114 78.6804 91.0088 74.5499 91.475C71.0984 91.8595 62.1667 91.9004 62.1667 95.4337Z" fill="#FFD5CF"/>
<path d="M69.2988 96.2594C67.0822 96.3902 64.5222 96.472 62.2239 95.834C63.1645 99.1466 75.8666 98.0588 77.895 96.2675C78.4267 95.8013 78.7375 95.237 78.8439 94.6562C75.8421 95.7686 72.3987 96.1121 69.2988 96.2594Z" fill="#E5A4A1"/>
<path d="M76.1939 93.3069C76.4311 93.6259 76.5374 93.9203 76.9464 94.0594C77.3145 94.182 77.6661 93.8631 77.6825 93.5032C77.6988 93.0288 77.3471 92.7507 76.9545 92.5544C76.5047 92.3172 75.8422 92.8243 76.1939 93.3069Z" fill="#FFE5E3"/>
<path d="M62.1667 90.4116C62.1667 93.5687 75.3597 92.1783 77.0364 90.4116C78.7049 88.6449 77.9851 83.991 74.5581 84.4654C71.1229 84.9398 62.1667 86.8864 62.1667 90.4116Z" fill="#FFD5CF"/>
<path d="M70.4931 90.3541C68.0802 90.6649 64.7595 91.2375 62.1667 90.4686C62.3058 93.5603 75.3678 92.1781 77.0282 90.4195C77.4453 89.9779 77.7152 89.3562 77.8297 88.6855C75.515 89.6752 72.8814 90.1005 70.4931 90.3541Z" fill="#E5A4A1"/>
<path d="M73.7156 85.946C74.0591 85.9869 74.3944 86.0605 74.7134 86.1832C75.0406 86.3059 75.1388 86.5431 75.3596 86.7885C75.8258 87.3201 76.6519 86.7557 76.4965 86.1259C76.1938 84.9236 74.5171 85.1853 73.6583 85.488C73.4048 85.5861 73.462 85.9215 73.7156 85.946Z" fill="#FFE5E3"/>
<path d="M62.4532 86.1417C63.2139 88.072 72.8571 84.9967 74.1575 82.9682C75.458 80.9398 73.5605 77.5209 68.7675 79.3612C63.9746 81.1934 61.2427 83.0746 62.4532 86.1417Z" fill="#FFD5CF"/>
<path d="M63.1238 86.6402C65.5039 87.3108 73.0123 84.7344 74.1574 82.9677C74.4927 82.4443 74.6154 81.8227 74.5255 81.2256C72.0717 83.3276 69.2172 84.9144 66.0764 85.9204C65.2013 86.1576 64.1707 86.4439 63.1238 86.6402Z" fill="#E5A4A1"/>
<path d="M67.4015 81.0219C68.0149 80.8829 68.6366 80.8665 69.25 80.7438C69.9289 80.613 70.7059 80.6948 71.3438 80.4576C71.8346 80.2776 71.9082 79.5415 71.3438 79.3943C69.937 79.0099 68.3258 79.9505 67.2625 80.7848C67.1561 80.8829 67.2788 81.0465 67.4015 81.0219Z" fill="#FFE5E3"/>
<path d="M72.4807 80.5146C72.9224 80.5146 72.9224 79.8193 72.4807 79.8193C72.0308 79.8193 72.0308 80.5146 72.4807 80.5146Z" fill="#FFE5E3"/>
<path opacity="0.5" d="M67.5814 85.7486C67.4178 85.3479 66.788 85.4951 66.9107 85.9286C67.6141 88.2842 66.15 88.1533 64.6614 87.7362C63.1155 87.3027 61.6106 85.9776 60.4901 84.8816C59.9339 84.3418 58.9851 84.8817 59.1978 85.6341C59.4677 86.6074 59.3859 87.6544 59.4186 88.6604C59.435 89.3965 59.1405 90.1245 59.1814 90.8197C59.1896 90.9342 59.6312 92.6927 59.7457 92.6927C60.7027 92.6927 61.2098 89.9527 60.7681 87.6217C62.0441 88.9957 63.549 90.0754 65.6265 90.0509C66.3872 90.0427 67.3687 89.6419 67.8267 89.0039C68.5792 87.9488 68.023 86.8446 67.5814 85.7486Z" fill="#E5A4A1"/>
<path d="M50.3806 98.9577C50.3806 98.9577 49.4482 90.5087 50.9368 85.6748C52.4254 80.8409 54.8383 77.9619 59.0178 78.4281C63.1973 78.8943 69.6098 86.599 67.3769 87.9977C65.144 89.3881 61.4306 88.3657 59.9502 85.6748C59.942 85.6748 64.964 101.469 50.3806 98.9577Z" fill="#FFD5CF"/>
<path d="M55.6643 81.2339C56.6048 81.1603 57.6027 81.0866 58.5269 81.2584C59.4921 81.4383 60.4572 82.1254 61.4141 82.0763C61.774 82.06 62.1339 81.7001 61.9949 81.3157C61.5614 80.1624 60.1382 79.7207 59.0259 79.4344C57.6763 79.0909 56.2449 79.4835 55.3861 80.555C55.198 80.8085 55.288 81.2666 55.6643 81.2339Z" fill="#FFE5E3"/>
<path d="M62.6329 82.7959C62.7556 83.074 62.8701 83.3521 62.9928 83.6302C63.1646 84.0064 63.5572 84.1537 63.9498 84.0719C64.1215 84.031 64.2769 83.8756 64.3178 83.7038C64.506 82.935 63.7044 82.6078 63.1646 82.2643C62.8129 82.0353 62.4939 82.4688 62.6329 82.7959Z" fill="#FFE5E3"/>
<path d="M7.32568 144.68C7.32568 144.68 41.6616 105.354 42.7494 104.7C43.8454 104.046 59.3367 115.856 57.6027 118.261C55.8687 120.666 34.2186 144.688 34.2186 144.688H7.32568V144.68Z" fill="#13897B"/>
<path d="M36.4187 129.204C42.2177 127.617 47.9267 125.556 53.4804 123.111C55.6233 120.665 57.1937 118.833 57.6108 118.252C59.3448 115.848 43.8535 104.037 42.7575 104.691C42.1032 105.084 29.4583 119.422 19.4634 130.815C24.6735 132.149 32.3128 130.284 36.4187 129.204Z" fill="#07AC9B"/>
</svg>
