<svg width="20" height="12" viewBox="0 0 20 12" fill="none" xmlns="http://www.w3.org/2000/svg">
<circle cx="10" cy="3" r="2.4" stroke="#64748B" stroke-width="1.2"/>
<path d="M5.22833 5.03758C5.22833 5.74065 4.65838 6.3106 3.9553 6.3106C3.25223 6.3106 2.68228 5.74065 2.68228 5.03758C2.68228 4.3345 3.25223 3.76455 3.9553 3.76455C4.65838 3.76455 5.22833 4.3345 5.22833 5.03758Z" stroke="#64748B" stroke-width="1.2"/>
<path d="M17.4664 5.03758C17.4664 5.74065 16.8964 6.3106 16.1933 6.3106C15.4903 6.3106 14.9203 5.74065 14.9203 5.03758C14.9203 4.3345 15.4903 3.76455 16.1933 3.76455C16.8964 3.76455 17.4664 4.3345 17.4664 5.03758Z" stroke="#64748B" stroke-width="1.2"/>
<path d="M15 11H5C5.56216 7.5623 8.69369 6.9075 10.1892 7.00982C13.9946 7.15013 14.982 9.7284 15 11Z" stroke="#64748B" stroke-width="1.2" stroke-linecap="round"/>
<path d="M15.1945 10.49H18.9822C18.788 9.56044 17.9583 7.69297 16.1935 7.65967C15.8189 7.65967 14.9448 7.77621 14.4453 8.24239" stroke="#64748B" stroke-width="1.2" stroke-linecap="round"/>
<path d="M4.78765 10.49H0.999979C1.19422 9.56044 2.0239 7.69297 3.78871 7.65967C4.16331 7.65967 5.03739 7.77621 5.53687 8.24239" stroke="#64748B" stroke-width="1.2" stroke-linecap="round"/>
</svg>
