<svg width="14" height="18" viewBox="0 0 14 18" fill="none" xmlns="http://www.w3.org/2000/svg">
<path d="M12.0001 17.3335C12.4421 17.3335 12.866 17.1579 13.1786 16.8453C13.4912 16.5328 13.6667 16.1089 13.6667 15.6668L13.6667 2.3335C13.6667 1.89147 13.4912 1.46755 13.1786 1.15499C12.866 0.842425 12.4421 0.66683 12.0001 0.66683L2.00008 0.666829C1.55806 0.666829 1.13413 0.842424 0.821572 1.15498C0.509011 1.46754 0.333416 1.89147 0.333416 2.3335L0.333415 12.3335L5.33341 17.3335L12.0001 17.3335ZM12.0001 15.6668L5.33342 15.6668L5.33341 12.3335L2.00008 12.3335L2.00008 2.3335L12.0001 2.3335L12.0001 15.6668Z" fill="#64748B"/>
</svg>
