<svg width="20" height="20" viewBox="0 0 20 20" fill="none" xmlns="http://www.w3.org/2000/svg">
<path d="M10 16.6668C8.4529 16.6668 6.96917 16.0522 5.87521 14.9583C4.78125 13.8643 4.16667 12.3806 4.16667 10.8335C4.16667 9.2864 4.78125 7.80267 5.87521 6.70871C6.96917 5.61474 8.4529 5.00016 10 5.00016C11.5471 5.00016 13.0308 5.61474 14.1248 6.70871C15.2188 7.80267 15.8333 9.2864 15.8333 10.8335C15.8333 12.3806 15.2188 13.8643 14.1248 14.9583C13.0308 16.0522 11.5471 16.6668 10 16.6668ZM15.8583 6.1585L17.0417 4.97516C16.6667 4.55016 16.2917 4.16683 15.8667 3.80016L14.6833 5.00016C13.3917 3.95016 11.7667 3.3335 10 3.3335C8.01088 3.3335 6.10322 4.12367 4.6967 5.53019C3.29018 6.93672 2.5 8.84437 2.5 10.8335C2.5 12.8226 3.29018 14.7303 4.6967 16.1368C6.10322 17.5433 8.01088 18.3335 10 18.3335C14.1667 18.3335 17.5 14.9752 17.5 10.8335C17.5 9.06683 16.8833 7.44183 15.8583 6.1585ZM9.16667 11.6668H10.8333V6.66683H9.16667V11.6668ZM12.5 0.833496H7.5V2.50016H12.5V0.833496Z" fill="#64748B"/>
</svg>
