<svg width="119" height="40" viewBox="0 0 119 40" fill="none" xmlns="http://www.w3.org/2000/svg">
<path d="M67.7145 27.179C66.8622 27.179 66.0994 27.0192 65.4261 26.6996C64.7528 26.3757 64.218 25.9325 63.8217 25.37C63.4297 24.8075 63.2209 24.1641 63.1953 23.4396H65.4964C65.5391 23.9766 65.7713 24.4155 66.1932 24.7564C66.6151 25.093 67.1222 25.2614 67.7145 25.2614C68.179 25.2614 68.5923 25.1548 68.9545 24.9418C69.3168 24.7287 69.6023 24.4325 69.8111 24.0533C70.0199 23.674 70.1222 23.2415 70.1179 22.7557C70.1222 22.2614 70.0178 21.8224 69.8047 21.4389C69.5916 21.0554 69.2997 20.755 68.929 20.5376C68.5582 20.3161 68.1321 20.2053 67.6506 20.2053C67.2585 20.201 66.8729 20.2734 66.4936 20.4226C66.1143 20.5717 65.8139 20.7678 65.5923 21.0107L63.451 20.6591L64.1349 13.9091H71.7287V15.8906H66.0973L65.7202 19.3615H65.7969C66.0398 19.076 66.3828 18.8395 66.826 18.652C67.2692 18.4602 67.755 18.3643 68.2834 18.3643C69.076 18.3643 69.7834 18.5518 70.4055 18.9268C71.0277 19.2976 71.5178 19.8089 71.8757 20.4609C72.2337 21.1129 72.4126 21.8587 72.4126 22.6982C72.4126 23.5632 72.2124 24.3345 71.8118 25.0121C71.4155 25.6854 70.8636 26.2159 70.1562 26.6037C69.4531 26.9872 68.6392 27.179 67.7145 27.179ZM79.3928 27.2493C78.3402 27.2493 77.4368 26.983 76.6825 26.4503C75.9325 25.9134 75.3551 25.1399 74.9503 24.13C74.5497 23.1158 74.3494 21.8949 74.3494 20.4673C74.3537 19.0398 74.5561 17.8253 74.9567 16.8239C75.3615 15.8182 75.9389 15.0511 76.6889 14.5227C77.4432 13.9943 78.3445 13.7301 79.3928 13.7301C80.4411 13.7301 81.3423 13.9943 82.0966 14.5227C82.8509 15.0511 83.4283 15.8182 83.8288 16.8239C84.2337 17.8295 84.4361 19.044 84.4361 20.4673C84.4361 21.8991 84.2337 23.1222 83.8288 24.1364C83.4283 25.1463 82.8509 25.9176 82.0966 26.4503C81.3466 26.983 80.4453 27.2493 79.3928 27.2493ZM79.3928 25.2486C80.2109 25.2486 80.8565 24.8459 81.3295 24.0405C81.8068 23.2308 82.0455 22.0398 82.0455 20.4673C82.0455 19.4276 81.9368 18.554 81.7195 17.8466C81.5021 17.1392 81.1953 16.6065 80.799 16.2486C80.4027 15.8864 79.9339 15.7053 79.3928 15.7053C78.5788 15.7053 77.9354 16.1101 77.4624 16.9197C76.9893 17.7251 76.7507 18.9077 76.7464 20.4673C76.7422 21.5114 76.8466 22.3892 77.0597 23.1009C77.277 23.8125 77.5838 24.3494 77.9801 24.7116C78.3764 25.0696 78.8473 25.2486 79.3928 25.2486Z" fill="#DBA731"/>
<path opacity="0.7" d="M37.6851 32.603C47.2478 32.603 54.9999 30.1525 54.9999 27.1296C54.9999 24.1068 47.2478 21.6562 37.6851 21.6562C28.1224 21.6562 20.3702 24.1068 20.3702 27.1296C20.3702 30.1525 28.1224 32.603 37.6851 32.603Z" fill="#CECECE"/>
<path fill-rule="evenodd" clip-rule="evenodd" d="M34.346 16.6646C29.3466 16.6646 24.9459 17.8505 22.3783 19.648H20.0194V22.9695C20.0065 23.0828 20 23.1977 20 23.3125C20 23.4274 20.0065 23.5423 20.0194 23.6555C20.4045 27.168 26.6706 29.9605 34.346 29.9605C42.0197 29.9605 48.2875 27.168 48.6726 23.6555H48.692V19.648H46.3136C43.746 17.8505 39.3453 16.6646 34.346 16.6646Z" fill="#DBA731"/>
<path d="M34.3461 26.8331C42.2682 26.8331 48.6904 23.7365 48.6904 19.9166C48.6904 16.0966 42.2682 13 34.3461 13C26.4239 13 20.0017 16.0966 20.0017 19.9166C20.0017 23.7365 26.4239 26.8331 34.3461 26.8331Z" fill="#F3E490"/>
<path d="M34.3461 26.296C42.2682 26.296 48.6904 23.3196 48.6904 19.648C48.6904 15.9764 42.2682 13 34.3461 13C26.4239 13 20.0017 15.9764 20.0017 19.648C20.0017 23.3196 26.4239 26.296 34.3461 26.296Z" fill="#EED957"/>
<path d="M34.346 24.6004C40.8823 24.6004 46.181 22.2636 46.181 19.381C46.181 16.4984 40.8823 14.1616 34.346 14.1616C27.8097 14.1616 22.511 16.4984 22.511 19.381C22.511 22.2636 27.8097 24.6004 34.346 24.6004Z" fill="#BC8522"/>
<path d="M34.346 24.6004C40.8823 24.6004 46.181 22.5425 46.181 20.0039C46.181 17.4654 40.8823 15.4075 34.346 15.4075C27.8097 15.4075 22.511 17.4654 22.511 20.0039C22.511 22.5425 27.8097 24.6004 34.346 24.6004Z" fill="#D1992A"/>
<path fill-rule="evenodd" clip-rule="evenodd" d="M29.6894 19.1151C30.2621 18.9031 30.8947 18.7446 31.5904 18.6491V17.5587L34.0432 17.9825V18.586C36.5785 18.7656 38.5604 19.6765 38.9082 20.966L44.257 19.0034V20.5485L38.9697 22.4997H36.517V21.4416C36.517 20.6699 35.475 20.013 34.0642 19.8545V22.7845L31.6115 22.3606V19.9483C30.487 20.191 29.7104 20.7734 29.7104 21.44V22.7829L27.2577 22.359V17.5554L29.7104 17.9793V19.1118H29.6894V19.1151Z" fill="#B88F24"/>
<path fill-rule="evenodd" clip-rule="evenodd" d="M29.1799 18.4295C29.7526 18.2176 30.3852 18.059 31.0809 17.9636V16.8731L33.5337 17.297V17.9005C36.0689 18.0801 38.0509 18.9909 38.3987 20.2804L43.7475 18.3179V19.863L38.4602 21.8142H36.0075V20.7561C36.0075 19.9843 34.9655 19.3275 33.5547 19.1689V22.0989L31.102 21.6751V19.2628C29.9775 19.5054 29.2009 20.0879 29.2009 20.7545V22.0973L26.7482 21.6734V16.8699L29.2009 17.2938V18.4263H29.1799V18.4295Z" fill="#EED957"/>
<path fill-rule="evenodd" clip-rule="evenodd" d="M39.172 11.6646C34.1727 11.6646 29.772 12.8505 27.2043 14.648H24.8471V17.9695C24.8341 18.0828 24.8276 18.1977 24.8276 18.3125C24.8276 18.4274 24.8341 18.5423 24.8471 18.6555C25.2321 22.168 31.4983 24.9605 39.1736 24.9605C46.8474 24.9605 53.1151 22.168 53.5002 18.6555H53.5196V14.648H51.1429C48.572 12.8521 44.173 11.6646 39.172 11.6646Z" fill="#DBA731"/>
<path d="M39.172 21.8331C47.0942 21.8331 53.5164 18.7365 53.5164 14.9166C53.5164 11.0966 47.0942 8 39.172 8C31.2498 8 24.8276 11.0966 24.8276 14.9166C24.8276 18.7365 31.2498 21.8331 39.172 21.8331Z" fill="#F3E490"/>
<path d="M39.172 21.2977C47.0942 21.2977 53.5164 18.3213 53.5164 14.6497C53.5164 10.9781 47.0942 8.00171 39.172 8.00171C31.2498 8.00171 24.8276 10.9781 24.8276 14.6497C24.8276 18.3213 31.2498 21.2977 39.172 21.2977Z" fill="#EED957"/>
<path d="M39.1721 19.6021C45.7084 19.6021 51.0071 17.2653 51.0071 14.3827C51.0071 11.5001 45.7084 9.16333 39.1721 9.16333C32.6359 9.16333 27.3372 11.5001 27.3372 14.3827C27.3372 17.2653 32.6359 19.6021 39.1721 19.6021Z" fill="#C99328"/>
<path d="M39.1721 19.6021C45.7084 19.6021 51.0071 17.5442 51.0071 15.0057C51.0071 12.4671 45.7084 10.4092 39.1721 10.4092C32.6359 10.4092 27.3372 12.4671 27.3372 15.0057C27.3372 17.5442 32.6359 19.6021 39.1721 19.6021Z" fill="#DBA731"/>
<path fill-rule="evenodd" clip-rule="evenodd" d="M34.5155 14.1158C35.0882 13.9039 35.7208 13.7453 36.4165 13.6499V12.5594L38.8692 12.9833V13.5868C41.4045 13.7663 43.3864 14.6772 43.7343 15.9667L49.0831 14.0042V15.5493L43.7958 17.5005H41.343V16.4424C41.343 15.6706 40.3011 15.0138 38.8903 14.8552V17.7852L36.4375 17.3613V14.949C35.3131 15.1917 34.5365 15.7742 34.5365 16.4407V17.7836L32.0837 17.3597V12.5562L34.5365 12.98V14.1126H34.5155V14.1158Z" fill="#C99328"/>
<path fill-rule="evenodd" clip-rule="evenodd" d="M34.0078 13.4312C34.5805 13.2193 35.2131 13.0607 35.9088 12.9653V11.8748L38.3615 12.2987V12.9022C40.8968 13.0818 42.8787 13.9927 43.2266 15.2821L48.5754 13.3196V14.8647L43.2881 16.8159H40.8353V15.7578C40.8353 14.9861 39.7934 14.3292 38.3826 14.1706V17.1007L35.9298 16.6768V14.2645C34.8054 14.5072 34.0288 15.0896 34.0288 15.7562V17.099L31.576 16.6751V11.8716L34.0288 12.2955V13.428H34.0078V13.4312Z" fill="#EED957"/>
<rect x="0.5" y="0.5" width="118" height="39" rx="3.5" stroke="#C99328"/>
</svg>
