<svg width="10" height="14" viewBox="0 0 10 14" fill="none" xmlns="http://www.w3.org/2000/svg">
<path d="M3.66667 13.6663C2.64444 13.6663 1.77778 13.3108 1.06667 12.5997C0.355555 11.8886 0 11.0219 0 9.99967V2.99967C0 2.26634 0.261111 1.63856 0.783333 1.11634C1.30556 0.594119 1.93333 0.333008 2.66667 0.333008C3.4 0.333008 4.02778 0.594119 4.55 1.11634C5.07222 1.63856 5.33333 2.26634 5.33333 2.99967V8.33301H4.33333V2.99967C4.33333 2.53301 4.17222 2.13856 3.85 1.81634C3.52778 1.49412 3.13333 1.33301 2.66667 1.33301C2.2 1.33301 1.80556 1.49412 1.48333 1.81634C1.16111 2.13856 1 2.53301 1 2.99967V9.99967C1 10.733 1.26111 11.3608 1.78333 11.883C2.30556 12.4052 2.93333 12.6663 3.66667 12.6663C3.98889 12.6663 4.29178 12.6135 4.57533 12.5077C4.85844 12.4023 5.11111 12.2552 5.33333 12.0663V13.2663C5.07778 13.3886 4.81111 13.4857 4.53333 13.5577C4.25556 13.6301 3.96667 13.6663 3.66667 13.6663ZM6.66667 12.9997V10.9997H4.66667V9.66634H6.66667V7.66634H8V9.66634H10V10.9997H8V12.9997H6.66667ZM3.66667 9.99967V10.9997C3.2 10.9997 2.80556 10.8386 2.48333 10.5163C2.16111 10.1941 2 9.79967 2 9.33301V2.99967H3V9.33301C3 9.5219 3.064 9.68012 3.192 9.80767C3.31956 9.93567 3.47778 9.99967 3.66667 9.99967ZM6.33333 6.33301V2.99967H7.33333V6.33301H6.33333Z" fill="black"/>
</svg>
