<svg width="99" height="40" viewBox="0 0 99 40" fill="none" xmlns="http://www.w3.org/2000/svg">
<path d="M66.7145 27.179C65.8622 27.179 65.0994 27.0192 64.4261 26.6996C63.7528 26.3757 63.218 25.9325 62.8217 25.37C62.4297 24.8075 62.2209 24.1641 62.1953 23.4396H64.4964C64.5391 23.9766 64.7713 24.4155 65.1932 24.7564C65.6151 25.093 66.1222 25.2614 66.7145 25.2614C67.179 25.2614 67.5923 25.1548 67.9545 24.9418C68.3168 24.7287 68.6023 24.4325 68.8111 24.0533C69.0199 23.674 69.1222 23.2415 69.1179 22.7557C69.1222 22.2614 69.0178 21.8224 68.8047 21.4389C68.5916 21.0554 68.2997 20.755 67.929 20.5376C67.5582 20.3161 67.1321 20.2053 66.6506 20.2053C66.2585 20.201 65.8729 20.2734 65.4936 20.4226C65.1143 20.5717 64.8139 20.7678 64.5923 21.0107L62.451 20.6591L63.1349 13.9091H70.7287V15.8906H65.0973L64.7202 19.3615H64.7969C65.0398 19.076 65.3828 18.8395 65.826 18.652C66.2692 18.4602 66.755 18.3643 67.2834 18.3643C68.076 18.3643 68.7834 18.5518 69.4055 18.9268C70.0277 19.2976 70.5178 19.8089 70.8757 20.4609C71.2337 21.1129 71.4126 21.8587 71.4126 22.6982C71.4126 23.5632 71.2124 24.3345 70.8118 25.0121C70.4155 25.6854 69.8636 26.2159 69.1562 26.6037C68.4531 26.9872 67.6392 27.179 66.7145 27.179Z" fill="#DBA731"/>
<path opacity="0.7" d="M37.6852 32.603C47.2479 32.603 55 30.1525 55 27.1296C55 24.1068 47.2479 21.6562 37.6852 21.6562C28.1225 21.6562 20.3704 24.1068 20.3704 27.1296C20.3704 30.1525 28.1225 32.603 37.6852 32.603Z" fill="#CECECE"/>
<path fill-rule="evenodd" clip-rule="evenodd" d="M34.346 16.6646C29.3466 16.6646 24.9459 17.8505 22.3783 19.648H20.0194V22.9695C20.0065 23.0828 20 23.1977 20 23.3125C20 23.4274 20.0065 23.5423 20.0194 23.6555C20.4045 27.168 26.6706 29.9605 34.346 29.9605C42.0197 29.9605 48.2875 27.168 48.6726 23.6555H48.692V19.648H46.3136C43.746 17.8505 39.3453 16.6646 34.346 16.6646Z" fill="#DBA731"/>
<path d="M34.3461 26.8331C42.2682 26.8331 48.6904 23.7365 48.6904 19.9166C48.6904 16.0966 42.2682 13 34.3461 13C26.4239 13 20.0017 16.0966 20.0017 19.9166C20.0017 23.7365 26.4239 26.8331 34.3461 26.8331Z" fill="#F3E490"/>
<path d="M34.3461 26.296C42.2682 26.296 48.6904 23.3196 48.6904 19.648C48.6904 15.9764 42.2682 13 34.3461 13C26.4239 13 20.0017 15.9764 20.0017 19.648C20.0017 23.3196 26.4239 26.296 34.3461 26.296Z" fill="#EED957"/>
<path d="M34.346 24.6005C40.8823 24.6005 46.181 22.2637 46.181 19.3811C46.181 16.4985 40.8823 14.1617 34.346 14.1617C27.8097 14.1617 22.511 16.4985 22.511 19.3811C22.511 22.2637 27.8097 24.6005 34.346 24.6005Z" fill="#BC8522"/>
<path d="M34.346 24.6004C40.8823 24.6004 46.181 22.5425 46.181 20.0039C46.181 17.4654 40.8823 15.4075 34.346 15.4075C27.8097 15.4075 22.511 17.4654 22.511 20.0039C22.511 22.5425 27.8097 24.6004 34.346 24.6004Z" fill="#D1992A"/>
<path fill-rule="evenodd" clip-rule="evenodd" d="M29.6895 19.1153C30.2623 18.9034 30.8949 18.7448 31.5906 18.6494V17.5589L34.0433 17.9828V18.5863C36.5786 18.7659 38.5605 19.6767 38.9084 20.9662L44.2572 19.0037V20.5488L38.9698 22.5H36.5171V21.4419C36.5171 20.6701 35.4752 20.0133 34.0643 19.8547V22.7847L31.6116 22.3608V19.9485C30.4872 20.1912 29.7106 20.7737 29.7106 21.4403V22.7831L27.2578 22.3592V17.5557L29.7106 17.9796V19.1121H29.6895V19.1153Z" fill="#B88F24"/>
<path fill-rule="evenodd" clip-rule="evenodd" d="M29.18 18.4297C29.7527 18.2177 30.3853 18.0592 31.081 17.9637V16.8732L33.5338 17.2971V17.9006C36.0691 18.0802 38.051 18.9911 38.3988 20.2805L43.7476 18.318V19.8631L38.4603 21.8143H36.0076V20.7562C36.0076 19.9845 34.9656 19.3276 33.5548 19.169V22.0991L31.1021 21.6752V19.2629C29.9776 19.5056 29.201 20.088 29.201 20.7546V22.0975L26.7483 21.6736V16.87L29.201 17.2939V18.4264H29.18V18.4297Z" fill="#EED957"/>
<path fill-rule="evenodd" clip-rule="evenodd" d="M39.172 11.6646C34.1727 11.6646 29.772 12.8505 27.2043 14.648H24.8471V17.9695C24.8341 18.0828 24.8276 18.1977 24.8276 18.3125C24.8276 18.4274 24.8341 18.5423 24.8471 18.6555C25.2321 22.168 31.4983 24.9605 39.1736 24.9605C46.8474 24.9605 53.1151 22.168 53.5002 18.6555H53.5196V14.648H51.1429C48.572 12.8521 44.173 11.6646 39.172 11.6646Z" fill="#DBA731"/>
<path d="M39.172 21.8331C47.0942 21.8331 53.5164 18.7365 53.5164 14.9166C53.5164 11.0966 47.0942 8 39.172 8C31.2498 8 24.8276 11.0966 24.8276 14.9166C24.8276 18.7365 31.2498 21.8331 39.172 21.8331Z" fill="#F3E490"/>
<path d="M39.172 21.2977C47.0942 21.2977 53.5164 18.3213 53.5164 14.6497C53.5164 10.9781 47.0942 8.00171 39.172 8.00171C31.2498 8.00171 24.8276 10.9781 24.8276 14.6497C24.8276 18.3213 31.2498 21.2977 39.172 21.2977Z" fill="#EED957"/>
<path d="M39.1721 19.6022C45.7084 19.6022 51.0071 17.2654 51.0071 14.3828C51.0071 11.5002 45.7084 9.16345 39.1721 9.16345C32.6359 9.16345 27.3372 11.5002 27.3372 14.3828C27.3372 17.2654 32.6359 19.6022 39.1721 19.6022Z" fill="#C99328"/>
<path d="M39.1721 19.6021C45.7084 19.6021 51.0071 17.5442 51.0071 15.0057C51.0071 12.4671 45.7084 10.4092 39.1721 10.4092C32.6359 10.4092 27.3372 12.4671 27.3372 15.0057C27.3372 17.5442 32.6359 19.6021 39.1721 19.6021Z" fill="#DBA731"/>
<path fill-rule="evenodd" clip-rule="evenodd" d="M34.5155 14.1159C35.0882 13.904 35.7208 13.7454 36.4165 13.65V12.5595L38.8692 12.9834V13.5869C41.4045 13.7665 43.3864 14.6774 43.7343 15.9668L49.0831 14.0043V15.5494L43.7958 17.5006H41.343V16.4425C41.343 15.6707 40.3011 15.0139 38.8903 14.8553V17.7853L36.4375 17.3615V14.9492C35.3131 15.1918 34.5365 15.7743 34.5365 16.4409V17.7837L32.0837 17.3598V12.5563L34.5365 12.9802V14.1127H34.5155V14.1159Z" fill="#C99328"/>
<path fill-rule="evenodd" clip-rule="evenodd" d="M34.0079 13.4314C34.5806 13.2194 35.2132 13.0609 35.9089 12.9654V11.8749L38.3617 12.2988V12.9023C40.8969 13.0819 42.8789 13.9928 43.2267 15.2823L48.5755 13.3197V14.8648L43.2882 16.816H40.8355V15.7579C40.8355 14.9862 39.7935 14.3293 38.3827 14.1708V17.1008L35.93 16.6769V14.2646C34.8055 14.5073 34.0289 15.0897 34.0289 15.7563V17.0992L31.5762 16.6753V11.8717L34.0289 12.2956V13.4281H34.0079V13.4314Z" fill="#EED957"/>
<rect x="0.5" y="0.5" width="98" height="39" rx="3.5" stroke="#C99328"/>
</svg>
