<svg width="12" height="12" viewBox="0 0 12 12" fill="none" xmlns="http://www.w3.org/2000/svg">
<path d="M1.33309 12C0.966423 12 0.652422 11.8696 0.391089 11.6087C0.1302 11.3473 -0.000244141 11.0333 -0.000244141 10.6667V1.33333C-0.000244141 0.966667 0.1302 0.652667 0.391089 0.391333C0.652422 0.130444 0.966423 0 1.33309 0H10.6664C11.0331 0 11.3471 0.130444 11.6084 0.391333C11.8693 0.652667 11.9998 0.966667 11.9998 1.33333V10.6667C11.9998 11.0333 11.8693 11.3473 11.6084 11.6087C11.3471 11.8696 11.0331 12 10.6664 12H1.33309ZM1.33309 10.6667H10.6664V1.33333H1.33309V10.6667ZM1.99976 9.33333H9.99976L7.49976 6L5.49976 8.66667L3.99976 6.66667L1.99976 9.33333Z" fill="black"/>
</svg>
