<svg width="54" height="65" viewBox="0 0 54 65" fill="none" xmlns="http://www.w3.org/2000/svg">
<g opacity="0.9">
<g filter="url(#filter0_i_264_8092)">
<rect x="0.342773" y="9.17383" width="42.4554" height="55.9899" rx="3.248" transform="rotate(-11.8552 0.342773 9.17383)" fill="#0A4B50"/>
</g>
<path d="M42.268 6.08547L4.88536 11.9924L11.8003 59.1766L49.5579 53.3731L42.268 6.08547Z" fill="#E2EEEE"/>
<g filter="url(#filter1_dd_264_8092)">
<path d="M38.8617 4.53922L4.01328 14.1316L16.7729 60.023L52.2291 50.2755L38.8617 4.53922Z" fill="#F8FCFF"/>
</g>
<g filter="url(#filter2_dd_264_8092)">
<rect width="36.6571" height="46.252" transform="translate(8.4834 10.0781) rotate(-3.00925)" fill="white"/>
<line x1="21.7011" y1="29.4773" x2="34.4435" y2="28.8074" stroke="#BCE8F5" stroke-width="1.16" stroke-linecap="round"/>
<line x1="21.4461" y1="31.2337" x2="39.0537" y2="30.3081" stroke="#64748B" stroke-width="0.463999" stroke-linecap="round"/>
<line x1="21.5252" y1="32.8548" x2="40.7546" y2="31.8439" stroke="#64748B" stroke-width="0.463999" stroke-linecap="round"/>
<line x1="21.2607" y1="21.1374" x2="34.003" y2="20.4676" stroke="#BCE8F5" stroke-width="1.16" stroke-linecap="round"/>
<line x1="21.0115" y1="23.1263" x2="38.6191" y2="22.2006" stroke="#64748B" stroke-width="0.463999" stroke-linecap="round"/>
<line x1="21.1013" y1="24.7464" x2="40.3307" y2="23.7355" stroke="#64748B" stroke-width="0.463999" stroke-linecap="round"/>
<line x1="21.1814" y1="26.3684" x2="40.4108" y2="25.3576" stroke="#64748B" stroke-width="0.463999" stroke-linecap="round"/>
<line x1="16.588" y1="51.5844" x2="29.7938" y2="50.8902" stroke="#BCE8F5" stroke-width="0.695999" stroke-linecap="round"/>
<line x1="21.867" y1="39.3431" x2="39.4746" y2="38.4174" stroke="#64748B" stroke-width="0.463999" stroke-linecap="round"/>
<line x1="21.9558" y1="40.9641" x2="41.1852" y2="39.9533" stroke="#64748B" stroke-width="0.463999" stroke-linecap="round"/>
<line x1="22.0369" y1="42.5862" x2="41.2663" y2="41.5753" stroke="#64748B" stroke-width="0.463999" stroke-linecap="round"/>
<g clip-path="url(#clip0_264_8092)">
<path d="M17.6714 20.6291L13.8873 20.828C13.5872 20.8438 13.3593 21.097 13.3751 21.397L13.574 25.1811C13.5816 25.3245 13.6457 25.459 13.7525 25.5551C13.8592 25.6511 13.9997 25.7008 14.143 25.6933L17.9271 25.4944C18.0705 25.4868 18.205 25.4227 18.3011 25.3159C18.3971 25.2092 18.4468 25.0687 18.4393 24.9254L18.2404 21.1413C18.2246 20.8412 17.9687 20.6135 17.6714 20.6291ZM17.6998 21.1697L17.8987 24.9538L14.1146 25.1527L13.9157 21.3686L17.6998 21.1697Z" fill="#5AC8FA"/>
</g>
<g clip-path="url(#clip1_264_8092)">
<path d="M18.1098 28.9699L14.3257 29.1688C14.0257 29.1846 13.7978 29.4378 13.8136 29.7379L14.0125 33.522C14.02 33.6653 14.0842 33.7998 14.1909 33.8959C14.2976 33.9919 14.4381 34.0417 14.5815 34.0341L18.3656 33.8352C18.509 33.8277 18.6435 33.7635 18.7395 33.6568C18.8356 33.5501 18.8853 33.4096 18.8778 33.2662L18.6789 29.4821C18.6631 29.1821 18.4072 28.9543 18.1098 28.9699ZM18.1383 29.5105L18.3372 33.2946L14.5531 33.4935L14.3542 29.7094L18.1383 29.5105Z" fill="#5AC8FA"/>
</g>
<path d="M18.5493 37.3098L14.7652 37.5087C14.4652 37.5245 14.2373 37.7777 14.253 38.0777L14.452 41.8618C14.4595 42.0052 14.5237 42.1397 14.6304 42.2357C14.7371 42.3318 14.8776 42.3815 15.021 42.374L18.8051 42.175C18.9484 42.1675 19.0829 42.1033 19.179 41.9966C19.275 41.8899 19.3248 41.7494 19.3172 41.606L19.1183 37.8219C19.1025 37.5219 18.8466 37.2941 18.5493 37.3098ZM18.5777 37.8503L18.7766 41.6345L14.9925 41.8334L14.7936 38.0493L18.5777 37.8503Z" fill="#5AC8FA"/>
<path d="M43.2243 47.8612C43.2949 49.2047 42.2631 50.3511 40.9196 50.4217C39.5761 50.4924 38.4297 49.4605 38.359 48.117C38.2884 46.7735 39.3203 45.6271 40.6638 45.5565C42.0073 45.4858 43.1537 46.5177 43.2243 47.8612Z" stroke="#6FA4EE" stroke-width="0.463999"/>
<path d="M42.067 47.923C42.104 48.6268 41.5635 49.2273 40.8598 49.2642C40.1561 49.3012 39.5556 48.7607 39.5186 48.057C39.4816 47.3532 40.0221 46.7528 40.7258 46.7158C41.4296 46.6788 42.03 47.2193 42.067 47.923Z" stroke="#6FA4EE" stroke-width="0.927999"/>
<path d="M16.0907 15.8366L16.8805 15.7951L17.2387 16.2059L17.7056 16.6882L18.4268 17.4879L17.5422 17.5344L17.0385 16.9926L16.737 16.6045L16.0907 15.8366ZM18.3315 15.1486C18.3549 15.5935 18.2892 15.9751 18.1343 16.2935C17.9795 16.6118 17.7601 16.859 17.4763 17.0349C17.1939 17.2108 16.8716 17.3083 16.5096 17.3273C16.1463 17.3464 15.8149 17.2826 15.5155 17.136C15.2161 16.9894 14.9727 16.7666 14.7854 16.4675C14.5993 16.1671 14.4946 15.7951 14.4713 15.3515C14.4479 14.9066 14.513 14.525 14.6665 14.2067C14.8214 13.8884 15.0401 13.6412 15.3226 13.4653C15.605 13.2895 15.9279 13.192 16.2912 13.1729C16.6532 13.1538 16.9839 13.217 17.2833 13.3623C17.5839 13.5075 17.828 13.7303 18.0154 14.0306C18.2028 14.331 18.3081 14.7036 18.3315 15.1486ZM17.3324 15.2011C17.3186 14.9378 17.2694 14.7173 17.1848 14.5396C17.1015 14.3618 16.9877 14.2299 16.8432 14.1437C16.7001 14.0575 16.5311 14.0196 16.3363 14.0298C16.1428 14.04 15.9787 14.0955 15.8441 14.1963C15.7095 14.2971 15.6094 14.4403 15.5439 14.6259C15.4798 14.8114 15.4546 15.0358 15.4684 15.2991C15.4823 15.5623 15.5308 15.7829 15.6141 15.9607C15.6987 16.1384 15.8132 16.2703 15.9577 16.3564C16.1021 16.4425 16.2711 16.4805 16.4646 16.4704C16.6594 16.4601 16.8235 16.4046 16.9568 16.3039C17.0914 16.2031 17.1908 16.0599 17.255 15.8744C17.3204 15.6888 17.3463 15.4644 17.3324 15.2011ZM20.9019 15.7282L20.8112 14.0044L21.7748 13.9538L21.9343 16.9867L21.0141 17.0351L20.9844 16.4703L20.9528 16.472C20.8955 16.6611 20.7887 16.8146 20.6325 16.9324C20.4776 17.0487 20.2863 17.1129 20.0585 17.1249C19.8519 17.1358 19.6677 17.0979 19.5061 17.0114C19.3445 16.9248 19.2157 16.7989 19.1199 16.6337C19.0241 16.4671 18.9694 16.2694 18.9561 16.0404L18.8545 14.1073L19.82 14.0566L19.9117 15.8001C19.9216 15.9646 19.9719 16.0919 20.0624 16.1822C20.153 16.2725 20.272 16.3138 20.4194 16.306C20.5155 16.301 20.6006 16.2754 20.6748 16.2292C20.7501 16.1817 20.8081 16.116 20.8485 16.032C20.8902 15.9466 20.908 15.8454 20.9019 15.7282ZM23.9696 16.9371C23.6523 16.9538 23.3752 16.9057 23.1383 16.7927C22.9026 16.6784 22.7168 16.508 22.5808 16.2815C22.446 16.0536 22.3702 15.7784 22.3532 15.4559C22.3368 15.1426 22.3842 14.8656 22.4957 14.6247C22.607 14.3826 22.7718 14.1905 22.9901 14.0483C23.2082 13.9048 23.47 13.8251 23.7754 13.809C23.9913 13.7977 24.1905 13.8209 24.3731 13.8786C24.5556 13.9363 24.7155 14.0276 24.8528 14.1523C24.99 14.2771 25.0999 14.4344 25.1825 14.6241C25.265 14.8125 25.3128 15.031 25.3259 15.2798L25.3385 15.5207L22.7025 15.6593L22.673 15.0985L24.4106 15.0072C24.4039 14.9046 24.3747 14.8144 24.3231 14.7366C24.2715 14.6588 24.2031 14.5997 24.1178 14.5593C24.0338 14.5175 23.9384 14.4994 23.8318 14.505C23.7239 14.5107 23.6284 14.5401 23.5454 14.5933C23.4623 14.6452 23.3979 14.7139 23.3523 14.7995C23.3066 14.8837 23.2851 14.9779 23.2879 15.082L23.3179 15.6527C23.3244 15.7764 23.3545 15.8838 23.4081 15.9747C23.4617 16.0642 23.5346 16.1323 23.6268 16.179C23.719 16.2256 23.827 16.2457 23.9507 16.2392C24.0363 16.2347 24.1133 16.2187 24.1818 16.1914C24.2503 16.164 24.3084 16.126 24.356 16.0773C24.4036 16.0286 24.4381 15.97 24.4596 15.9016L25.3475 15.8806C25.3211 16.0813 25.2493 16.2587 25.132 16.4127C25.0159 16.5653 24.8593 16.6877 24.6622 16.7799C24.465 16.8708 24.2341 16.9232 23.9696 16.9371ZM28.4362 14.5322L27.5509 14.6025C27.5384 14.5398 27.5104 14.4852 27.4671 14.4386C27.4236 14.3908 27.3683 14.3547 27.301 14.3305C27.235 14.305 27.1592 14.2944 27.0736 14.2989C26.9617 14.3048 26.8675 14.3322 26.7908 14.3811C26.7155 14.43 26.6805 14.4925 26.6859 14.5688C26.6877 14.6281 26.7141 14.6782 26.765 14.7191C26.8174 14.7599 26.908 14.7901 27.0371 14.8097L27.6274 14.8896C27.9332 14.9316 28.1633 15.0158 28.3178 15.1423C28.4736 15.2688 28.558 15.4426 28.571 15.6636C28.5806 15.8717 28.5282 16.0559 28.4139 16.2164C28.3009 16.3768 28.1413 16.5053 27.9352 16.6019C27.729 16.6972 27.4903 16.752 27.2192 16.7663C26.7861 16.7891 26.4398 16.7182 26.1804 16.5536C25.9222 16.3876 25.7674 16.1555 25.7161 15.8573L26.6685 15.7835C26.6954 15.8929 26.7545 15.9743 26.8457 16.0276C26.937 16.0809 27.051 16.1039 27.1879 16.0967C27.3117 16.0902 27.4112 16.0619 27.4864 16.0117C27.5616 15.9616 27.5979 15.8983 27.5952 15.8219C27.5903 15.7535 27.5572 15.7004 27.4958 15.6627C27.4343 15.6237 27.3398 15.5957 27.2122 15.5787L26.6777 15.5058C26.3707 15.4665 26.1389 15.3764 25.9824 15.2354C25.8257 15.0932 25.742 14.9062 25.7311 14.6744C25.7191 14.4718 25.764 14.2958 25.8657 14.1466C25.9674 13.9961 26.1169 13.8773 26.3143 13.7904C26.5117 13.7035 26.7473 13.6528 27.0211 13.6384C27.4318 13.6168 27.7601 13.686 28.0061 13.846C28.2521 14.0047 28.3955 14.2334 28.4362 14.5322ZM30.6499 13.4872L30.6873 14.1981L28.7739 14.2987L28.7366 13.5878L30.6499 13.4872ZM29.0992 12.8401L30.0647 12.7894L30.2122 15.5952C30.2154 15.6544 30.2271 15.702 30.2475 15.7379C30.2691 15.7724 30.2987 15.7966 30.3364 15.8104C30.374 15.823 30.4185 15.8279 30.4699 15.8252C30.5067 15.8232 30.5454 15.8179 30.5858 15.8092C30.6275 15.7991 30.6588 15.7908 30.6796 15.7845L30.8623 16.4738C30.817 16.4894 30.7527 16.5093 30.6694 16.5334C30.5876 16.5575 30.4888 16.5753 30.3733 16.5866C30.1474 16.6091 29.9519 16.5929 29.7866 16.5383C29.6226 16.4822 29.4943 16.3886 29.4016 16.2575C29.3102 16.1264 29.2605 15.9581 29.2523 15.7526L29.0992 12.8401ZM31.302 16.4942L31.1425 13.4613L32.1081 13.4106L32.2675 16.4435L31.302 16.4942ZM31.6077 13.0825C31.4721 13.0896 31.3533 13.051 31.2512 12.9666C31.149 12.8809 31.0945 12.7742 31.0878 12.6465C31.0812 12.5201 31.1242 12.4096 31.2169 12.315C31.3096 12.219 31.4237 12.1675 31.5593 12.1603C31.6962 12.1532 31.815 12.1924 31.9159 12.2782C32.018 12.3626 32.0724 12.468 32.079 12.5944C32.0858 12.7221 32.0428 12.8339 31.9502 12.9298C31.8588 13.0244 31.7446 13.0753 31.6077 13.0825ZM34.3009 16.394C33.9823 16.4108 33.7051 16.36 33.4692 16.2417C33.2345 16.122 33.0492 15.9483 32.9131 15.7205C32.7783 15.4913 32.7027 15.2214 32.6864 14.9107C32.67 14.5987 32.7169 14.3224 32.827 14.0816C32.9383 13.8395 33.1044 13.6473 33.3253 13.505C33.5474 13.3613 33.8178 13.2811 34.1363 13.2644C34.4549 13.2476 34.7315 13.2991 34.9662 13.4187C35.2021 13.537 35.3874 13.7107 35.5222 13.9399C35.6583 14.1677 35.7345 14.4376 35.7509 14.7496C35.7672 15.0603 35.7197 15.3367 35.6084 15.5788C35.4983 15.8196 35.3322 16.0118 35.11 16.1554C34.8891 16.2977 34.6194 16.3773 34.3009 16.394ZM34.2685 15.6651C34.3843 15.659 34.4805 15.6183 34.5571 15.543C34.6337 15.4677 34.6897 15.3657 34.7252 15.2372C34.7619 15.1085 34.776 14.9612 34.7673 14.7954C34.7584 14.6269 34.7289 14.4806 34.6789 14.3565C34.6301 14.2324 34.5637 14.1368 34.4797 14.07C34.3956 14.0031 34.2957 13.9727 34.1798 13.9788C34.0601 13.9851 33.9606 14.026 33.8814 14.1014C33.8035 14.1768 33.7462 14.2788 33.7094 14.4075C33.6739 14.5361 33.6606 14.6846 33.6694 14.8531C33.6781 15.019 33.7069 15.164 33.7557 15.2881C33.8057 15.4122 33.8735 15.5077 33.9588 15.5744C34.0455 15.6412 34.1487 15.6714 34.2685 15.6651ZM37.1993 14.4497L37.2903 16.1794L36.3247 16.2302L36.1653 13.1973L37.0835 13.149L37.1127 13.7058L37.1463 13.7041C37.2037 13.5149 37.3105 13.3635 37.4669 13.2496C37.6232 13.1345 37.8133 13.0711 38.0371 13.0593C38.2503 13.0481 38.4378 13.0864 38.5995 13.1743C38.7624 13.2607 38.8918 13.3873 38.9877 13.5538C39.0848 13.719 39.1387 13.9155 39.1494 14.1433L39.251 16.0764L38.2854 16.1271L38.1938 14.3836C38.1862 14.215 38.1365 14.0856 38.0447 13.9954C37.9541 13.9052 37.8325 13.864 37.6798 13.8721C37.5785 13.8774 37.4901 13.9045 37.4148 13.9533C37.3407 14.0008 37.2848 14.0664 37.247 14.1502C37.2104 14.234 37.1946 14.3338 37.1993 14.4497Z" fill="black"/>
</g>
</g>
<defs>
<filter id="filter0_i_264_8092" x="0.707942" y="1.04883" width="52.0899" height="62.3232" filterUnits="userSpaceOnUse" color-interpolation-filters="sRGB">
<feFlood flood-opacity="0" result="BackgroundImageFix"/>
<feBlend mode="normal" in="SourceGraphic" in2="BackgroundImageFix" result="shape"/>
<feColorMatrix in="SourceAlpha" type="matrix" values="0 0 0 0 0 0 0 0 0 0 0 0 0 0 0 0 0 0 127 0" result="hardAlpha"/>
<feOffset dx="-0.927999"/>
<feGaussianBlur stdDeviation="0.116"/>
<feComposite in2="hardAlpha" operator="arithmetic" k2="-1" k3="1"/>
<feColorMatrix type="matrix" values="0 0 0 0 0 0 0 0 0 0 0 0 0 0 0 0 0 0 0.46 0"/>
<feBlend mode="normal" in2="shape" result="effect1_innerShadow_264_8092"/>
</filter>
<filter id="filter1_dd_264_8092" x="2.85318" y="3.37906" width="50.5358" height="57.8044" filterUnits="userSpaceOnUse" color-interpolation-filters="sRGB">
<feFlood flood-opacity="0" result="BackgroundImageFix"/>
<feColorMatrix in="SourceAlpha" type="matrix" values="0 0 0 0 0 0 0 0 0 0 0 0 0 0 0 0 0 0 127 0" result="hardAlpha"/>
<feOffset dx="0.232" dy="0.232"/>
<feGaussianBlur stdDeviation="0.463999"/>
<feComposite in2="hardAlpha" operator="out"/>
<feColorMatrix type="matrix" values="0 0 0 0 0 0 0 0 0 0 0 0 0 0 0 0 0 0 0.16 0"/>
<feBlend mode="normal" in2="BackgroundImageFix" result="effect1_dropShadow_264_8092"/>
<feColorMatrix in="SourceAlpha" type="matrix" values="0 0 0 0 0 0 0 0 0 0 0 0 0 0 0 0 0 0 127 0" result="hardAlpha"/>
<feOffset dx="-0.232" dy="-0.232"/>
<feGaussianBlur stdDeviation="0.463999"/>
<feComposite in2="hardAlpha" operator="out"/>
<feColorMatrix type="matrix" values="0 0 0 0 0 0 0 0 0 0 0 0 0 0 0 0 0 0 0.09 0"/>
<feBlend mode="normal" in2="effect1_dropShadow_264_8092" result="effect2_dropShadow_264_8092"/>
<feBlend mode="normal" in="SourceGraphic" in2="effect2_dropShadow_264_8092" result="shape"/>
</filter>
<filter id="filter2_dd_264_8092" x="7.3234" y="6.99332" width="41.3547" height="50.4333" filterUnits="userSpaceOnUse" color-interpolation-filters="sRGB">
<feFlood flood-opacity="0" result="BackgroundImageFix"/>
<feColorMatrix in="SourceAlpha" type="matrix" values="0 0 0 0 0 0 0 0 0 0 0 0 0 0 0 0 0 0 127 0" result="hardAlpha"/>
<feOffset dx="0.232" dy="0.232"/>
<feGaussianBlur stdDeviation="0.463999"/>
<feComposite in2="hardAlpha" operator="out"/>
<feColorMatrix type="matrix" values="0 0 0 0 0 0 0 0 0 0 0 0 0 0 0 0 0 0 0.16 0"/>
<feBlend mode="normal" in2="BackgroundImageFix" result="effect1_dropShadow_264_8092"/>
<feColorMatrix in="SourceAlpha" type="matrix" values="0 0 0 0 0 0 0 0 0 0 0 0 0 0 0 0 0 0 127 0" result="hardAlpha"/>
<feOffset dx="-0.232" dy="-0.232"/>
<feGaussianBlur stdDeviation="0.463999"/>
<feComposite in2="hardAlpha" operator="out"/>
<feColorMatrix type="matrix" values="0 0 0 0 0 0 0 0 0 0 0 0 0 0 0 0 0 0 0.09 0"/>
<feBlend mode="normal" in2="effect1_dropShadow_264_8092" result="effect2_dropShadow_264_8092"/>
<feBlend mode="normal" in="SourceGraphic" in2="effect2_dropShadow_264_8092" result="shape"/>
</filter>
<clipPath id="clip0_264_8092">
<rect width="6.49599" height="6.49599" fill="white" transform="translate(12.4932 20.0879) rotate(-3.00925)"/>
</clipPath>
<clipPath id="clip1_264_8092">
<rect width="6.49599" height="6.49599" fill="white" transform="translate(12.9316 28.4287) rotate(-3.00925)"/>
</clipPath>
</defs>
</svg>
