<svg width="56" height="51" viewBox="0 0 56 51" fill="none" xmlns="http://www.w3.org/2000/svg">
<g opacity="0.9">
<g opacity="0.8">
<path d="M48.697 31.4734L52.3354 10.0661L34.7424 6.70801L34.5166 4.69042L31.1024 5.02898L48.697 31.4734Z" fill="#F9AB2D"/>
<path d="M21.4447 4.47731L23.0692 27.7256L48.562 32.0784L51.0398 10.6475L33.19 7.35557L32.8405 4.61046L21.4447 4.47731Z" fill="#FFD252"/>
<path d="M38.8304 24.8859L38.8183 28.2123L47.4022 29.926L47.7683 26.6536L38.8304 24.8859Z" fill="#F9AB2D"/>
<path d="M22.6968 6.45801C23.1719 6.52479 23.3057 7.53436 23.7807 7.60115C24.2558 7.66793 24.122 6.65836 24.5971 6.72514C25.0722 6.79192 25.206 7.80149 25.6811 7.86828C26.1562 7.93506 26.0224 6.92548 26.4975 6.99227C26.9725 7.05905 27.1063 8.06862 27.583 8.13554C28.0581 8.20232 27.9243 7.19275 28.3994 7.25953C28.8745 7.32632 29.0098 8.33603 29.4849 8.40281C29.9616 8.46973 29.8262 7.46002 30.3029 7.52694C30.7795 7.59386 30.9133 8.60343 31.3884 8.67022" stroke="#F9AB2D" stroke-width="0.479987" stroke-miterlimit="10" stroke-linecap="round"/>
<path d="M42.1012 17.1709L40.9647 17.2755L40.7784 15.0211C38.2372 15.2931 35.8957 15.7459 33.7869 16.2875C32.583 16.5969 31.4544 16.9345 30.4093 17.285C30.1485 17.373 29.8924 17.4606 29.6413 17.5492C29.5166 17.5935 29.3918 17.6378 29.2687 17.6819C29.0225 17.7717 28.7827 17.8609 28.5478 17.9496C28.0142 18.1526 27.5096 18.3559 27.0323 18.5567L21.8868 19.0309L22.1611 28.0468L43.7549 30.2148L43.028 19.0766C43.0213 19.0063 43.002 18.9404 42.9766 18.8767L42.9089 17.8382C42.8712 17.4306 42.5087 17.1317 42.1012 17.1709Z" fill="#FFE2C5"/>
<path d="M34.3369 8.22656L37.7721 8.6152L51.8668 10.2099L49.4161 24.5422L49.6755 24.5898L52.179 9.95084L34.3369 8.22656Z" fill="#FFE2C5"/>
<path d="M45.6069 2.79331L45.1453 5.62122" stroke="#1C5D7A" stroke-width="0.959976" stroke-miterlimit="10" stroke-linecap="round"/>
<path d="M48.1618 4.88522L47.132 6.26641" stroke="#1C5D7A" stroke-width="0.959976" stroke-miterlimit="10" stroke-linecap="round"/>
<path d="M52.0109 26.8703C52.6031 26.8133 53.0369 26.287 52.9799 25.6949C52.9229 25.1028 52.3967 24.6689 51.8046 24.7259C51.2124 24.7829 50.7786 25.3091 50.8356 25.9013C50.8926 26.4934 51.4188 26.9273 52.0109 26.8703Z" fill="#E2E2E2"/>
<path d="M40.2384 4.15908C40.7228 3.57147 40.6392 2.70242 40.0516 2.21798C39.464 1.73355 38.5949 1.81719 38.1105 2.4048C37.6261 2.9924 37.7097 3.86146 38.2973 4.34589C38.8849 4.83033 39.754 4.74669 40.2384 4.15908Z" stroke="#E2E2E2" stroke-width="0.479988" stroke-miterlimit="10"/>
<path d="M27.8388 3.54993C28.1468 3.52029 28.3724 3.24659 28.3428 2.9386C28.3131 2.63061 28.0395 2.40497 27.7315 2.43461C27.4235 2.46425 27.1979 2.73795 27.2275 3.04594C27.2571 3.35393 27.5308 3.57957 27.8388 3.54993Z" fill="#E2E2E2"/>
</g>
<g opacity="0.8">
<path d="M17.7175 44.9152C17.5739 44.4088 17.0462 44.1165 16.5398 44.2601L3.44615 47.9917L3.73473 50.1524C3.77318 50.5519 4.12869 50.845 4.5282 50.8065L18.9996 49.4138L17.7175 44.9152Z" fill="#E2E2E2"/>
<path d="M43.5446 46.3035L4.99024 50.0141C4.59074 50.0525 4.23522 49.7594 4.19678 49.3599L0.589191 22.3234C0.550742 21.9239 0.843832 21.5684 1.24333 21.5299L41.6404 17.8096C42.0399 17.7712 42.3954 18.0643 42.4338 18.4638L44.1987 45.51C44.2371 45.9095 43.9456 46.2649 43.5446 46.3035Z" fill="#209FE5"/>
<path d="M43.4274 45.0886L4.87305 48.7992C4.47355 48.8377 4.11804 48.5446 4.07959 48.1451L0.472003 21.1086C0.433555 20.7091 0.726645 20.3536 1.12615 20.3151L41.5232 16.5948C41.9227 16.5563 42.2782 16.8494 42.3166 17.2489L44.0815 44.2952C44.12 44.6947 43.8284 45.05 43.4274 45.0886Z" fill="#48C8EF"/>
<path d="M24.0296 46.4872L23.6659 43.0815L23.3165 39.675L22.641 32.8649L21.9988 26.0581L21.6898 22.6538L21.3969 19.2519L21.7606 22.6576L22.1099 26.0641L22.7853 32.8727L23.4262 39.6809L23.7352 43.0852L24.0296 46.4872Z" fill="#724C27"/>
<path d="M5.35483 42.1027L1.9906 19.2378C1.9906 19.2378 12.6174 16.3919 21.5349 20.6268C21.5349 20.6268 28.838 15.7099 40.2284 14.4888L42.2108 38.5714L23.8255 44.4283L5.35483 42.1027Z" fill="white"/>
<path d="M38.9267 14.6663L41.8832 40.2368L24.3833 45.3199L6.44289 41.7182L2.20921 17.3367C2.66735 17.2411 4.2911 16.9336 6.55288 16.8379C10.3413 16.6778 15.9335 17.1037 21.066 20.0442L21.1467 20.0899L21.2168 20.0412C21.2335 20.0287 22.9707 18.8304 26.0275 17.573C28.8216 16.4233 33.3194 14.9932 38.9267 14.6663ZM39.0581 14.488C28.0201 15.0902 21.1247 19.8944 21.1247 19.8944C15.9545 16.9334 10.3271 16.5073 6.52957 16.6678C3.81057 16.7828 2.03116 17.1985 2.03116 17.1985L6.31434 41.8591L24.4036 45.4902L42.0493 40.3653L39.0581 14.488Z" fill="#E2E2E2"/>
<path d="M6.41675 46.2917L41.808 42.8856C41.808 42.8856 41.1686 40.8093 42.2102 38.5712C42.2102 38.5712 31.1235 39.1354 23.8249 44.4282C23.8249 44.4282 16.1013 40.7362 5.35423 42.1026C5.35423 42.1026 6.22593 43.3232 6.41675 46.2917Z" fill="#E2E2E2"/>
<path d="M21.6094 21.242C21.8201 23.1086 22.0136 24.9743 22.2054 26.8383L22.764 32.4327L23.2896 38.0254L23.5402 40.822L23.7751 43.6177L23.4684 40.8183L23.1775 38.0197L22.6203 32.4253L22.0962 26.8327C21.9274 24.9698 21.7598 23.1055 21.6094 21.242Z" fill="#E8D4D1"/>
<path d="M7.01481 33.5704C7.01481 33.5704 13.745 32.3455 19.5811 34.1193" stroke="#564E4E" stroke-width="0.479988" stroke-miterlimit="10" stroke-linecap="round"/>
<path d="M7.14274 34.8721C7.14274 34.8721 13.873 33.6472 19.7091 35.421" stroke="#564E4E" stroke-width="0.479988" stroke-miterlimit="10" stroke-linecap="round"/>
<path d="M7.52653 38.8809C7.52653 38.8809 14.2568 37.656 20.0929 39.4298" stroke="#564E4E" stroke-width="0.479988" stroke-miterlimit="10" stroke-linecap="round"/>
<path d="M17.2549 35.8086C17.4413 35.8397 17.6264 35.874 17.8133 35.9098C18.4804 36.0401 19.1473 36.2004 19.8022 36.3999" stroke="#564E4E" stroke-width="0.479988" stroke-miterlimit="10" stroke-linecap="round"/>
<path d="M7.26676 36.1837C7.26676 36.1837 11.5091 35.4117 16.1778 35.9807" stroke="#564E4E" stroke-width="0.479988" stroke-miterlimit="10" stroke-linecap="round"/>
<path d="M7.39372 37.4942C7.39372 37.4942 8.82643 37.233 10.9445 37.1272" stroke="#564E4E" stroke-width="0.479988" stroke-miterlimit="10" stroke-linecap="round"/>
<path d="M24.1179 22.7503C24.1179 22.7503 29.5006 19.0571 38.4335 18.6053" stroke="#209FE5" stroke-width="1.43996" stroke-miterlimit="10" stroke-linecap="round"/>
<path d="M24.3494 25.148C24.3494 25.148 31.427 21.5843 38.7441 21.824" stroke="#564E4E" stroke-width="0.479988" stroke-miterlimit="10" stroke-linecap="round"/>
<path d="M24.4842 26.566C24.4842 26.566 31.5617 23.0022 38.8788 23.242" stroke="#564E4E" stroke-width="0.479988" stroke-miterlimit="10" stroke-linecap="round"/>
<path d="M24.6209 27.9839C24.6209 27.9839 31.6985 24.4202 39.0156 24.66" stroke="#564E4E" stroke-width="0.479988" stroke-miterlimit="10" stroke-linecap="round"/>
<path d="M24.7571 29.4023C24.7571 29.4023 27.3586 28.0925 31.0357 27.1156" stroke="#564E4E" stroke-width="0.479988" stroke-miterlimit="10" stroke-linecap="round"/>
<path d="M24.895 30.8199C24.895 30.8199 27.4979 29.5084 31.1812 28.5309" stroke="#564E4E" stroke-width="0.479988" stroke-miterlimit="10" stroke-linecap="round"/>
<path d="M25.0313 32.2383C25.0313 32.2383 27.651 30.9204 31.3499 29.9398" stroke="#564E4E" stroke-width="0.479988" stroke-miterlimit="10" stroke-linecap="round"/>
<path d="M25.1678 33.6558C25.1678 33.6558 32.2453 30.0921 39.5624 30.3318" stroke="#564E4E" stroke-width="0.479988" stroke-miterlimit="10" stroke-linecap="round"/>
<path d="M25.3035 35.0738C25.3035 35.0738 32.3811 31.51 39.6982 31.7498" stroke="#564E4E" stroke-width="0.479988" stroke-miterlimit="10" stroke-linecap="round"/>
<path d="M25.4422 36.523C25.4422 36.523 32.5198 32.9593 39.8368 33.199" stroke="#564E4E" stroke-width="0.479988" stroke-miterlimit="10" stroke-linecap="round"/>
<path d="M25.5819 37.9712C25.5819 37.9712 32.6594 34.4075 39.9765 34.6473" stroke="#564E4E" stroke-width="0.479988" stroke-miterlimit="10" stroke-linecap="round"/>
<path d="M25.7176 39.3746C25.7176 39.3746 32.7951 35.8108 40.1122 36.0506" stroke="#564E4E" stroke-width="0.479988" stroke-miterlimit="10" stroke-linecap="round"/>
<path d="M32.8608 26.3508L33.3778 29.7671C33.3778 29.7671 36.0146 29.186 39.0752 29.3279L38.7341 25.784C38.7343 25.7855 35.8874 25.5646 32.8608 26.3508Z" fill="#FFD252"/>
</g>
</g>
</svg>
