<svg width="22" height="19" viewBox="0 0 22 19" fill="none" xmlns="http://www.w3.org/2000/svg">
<path d="M5.40312 0.0588096L8.72472 5.42857H0.919922V4.97619C0.919922 2.47905 2.86392 0.416191 5.40312 0.0588096ZM14.9647 5.42857H9.83352L6.47352 0H11.6047L14.9647 5.42857ZM21.0799 4.97619V5.42857H16.0735L12.7135 0H15.7999C18.7183 0 21.0799 2.22571 21.0799 4.97619ZM0.919922 6.33333V14.0238C0.919922 16.7743 3.28152 19 6.19992 19H15.7999C18.7183 19 21.0799 16.7743 21.0799 14.0238V6.33333H0.919922ZM13.8799 12.7526L10.0447 14.8064C9.40632 15.1502 8.59992 14.725 8.59992 14.0419V9.93429C8.59992 9.25119 9.40632 8.82595 10.0447 9.16976L13.8799 11.2236C14.5183 11.5629 14.5183 12.4133 13.8799 12.7526Z" fill="#F9C50F"/>
</svg>
