<svg width="62" height="69" viewBox="0 0 62 69" fill="none" xmlns="http://www.w3.org/2000/svg">
<g opacity="0.9">
<path d="M10.861 25.7637C10.861 25.7637 9.60691 31.5978 12.6318 38.7155C15.6567 45.8332 14.9946 51.656 10.604 53.1103" stroke="#1C5D7A" stroke-width="0.802823" stroke-miterlimit="10" stroke-linecap="round"/>
<path d="M1.68325 13.3607C1.68325 13.3607 -3.05627 17.8229 -0.0737045 22.6882C3.58307 28.6541 14.423 25.461 16.2126 17.2083C17.4783 11.3711 12.8892 12.02 12.1774 15.8105" stroke="#1C5D7A" stroke-width="0.802823" stroke-miterlimit="10" stroke-linecap="round"/>
<path d="M21.292 6.19693C21.292 6.19693 14.2392 4.59422 5.74427 9.1401" stroke="#1C5D7A" stroke-width="0.802823" stroke-miterlimit="10" stroke-linecap="round"/>
<path d="M-0.992542 6.78147L-3.69654 8.45584L-5.66539 11.6181L-6.37143 15.4321L32.3532 56.8271L37.732 48.1764L-0.992542 6.78147Z" fill="#EF884F"/>
<path d="M36.0103 51.3805L34.0454 54.6221L-5.63456 11.1411L-3.66966 7.89951L36.0103 51.3805Z" fill="#1C5D7A"/>
<path d="M32.3747 57.415C32.3747 57.415 31.0372 54.1754 34.081 54.6726C34.081 54.6726 31.8144 49.7466 36.0491 51.5073C36.0491 51.5073 35.441 48.5896 37.7554 48.7649C37.7554 48.7649 38.9643 56.8237 42.174 60.6871L40.535 61.5678C40.5329 61.5717 35.7495 56.9898 32.3747 57.415Z" fill="white"/>
<path d="M39.825 56.5585C40.4462 58.1228 41.2206 59.6388 42.1737 60.7834L40.5331 61.6648C40.5331 61.6648 39.7832 60.948 38.668 60.1051C38.6595 59.1768 38.8142 57.6038 39.825 56.5585Z" fill="#1C5D7A"/>
<path d="M53.6985 43.4589C49.5516 43.4361 44.8763 43.6129 42.8841 44.4312C38.9279 46.0509 60.2424 52.7774 60.7552 56.1791C61.2681 59.5837 46.8274 59.9886 39.8763 61.6881" stroke="#1C5D7A" stroke-width="0.802823" stroke-miterlimit="10" stroke-linecap="round"/>
<path d="M52.873 37.5596C52.407 37.5596 51.9187 37.5596 51.4154 37.5596" stroke="#1C5D7A" stroke-width="0.802823" stroke-miterlimit="10" stroke-linecap="round"/>
<path d="M57.7314 37.5596C57.7314 37.5596 56.7845 37.5596 55.3021 37.5596" stroke="#1C5D7A" stroke-width="0.802823" stroke-miterlimit="10" stroke-linecap="round"/>
<path d="M26.6934 32.7336H28.0867L28.5796 30.4605L20.8057 24.1543L20.8377 25.3451L26.6934 32.7336Z" fill="#D5E6EF"/>
<path d="M0.111614 15.3957C-0.928524 17.1537 -1.81076 19.8523 -0.0738538 22.6881C3.58292 28.6542 14.4229 25.461 16.2124 17.2081C17.1598 12.84 14.8289 12.1053 13.2976 13.5976" stroke="#1C5D7A" stroke-width="0.802823" stroke-miterlimit="10" stroke-linecap="round"/>
<path d="M7.68732 50.6317C7.81127 50.5812 7.9374 50.5391 8.06788 50.5055C9.5097 50.1548 10.8493 51.0385 11.0602 52.4833C11.2712 53.9252 10.273 55.3784 8.8312 55.7291C8.70072 55.7599 8.57024 55.7796 8.44193 55.7908L7.68732 50.6317Z" fill="#1C5D7A"/>
<path d="M6.09058 55.2544L9.14697 54.9502L8.57918 52.0371L5.26004 52.6425" stroke="#1C5D7A" stroke-width="0.802823" stroke-miterlimit="10" stroke-linecap="round"/>
<path d="M13.5169 11.5553C13.5169 11.5553 15.1109 10.797 16.4321 11.8214" stroke="#1C5D7A" stroke-width="0.802823" stroke-miterlimit="10" stroke-linecap="round"/>
<path d="M42.1854 48.0152C42.1854 48.46 42.6198 48.8196 43.1572 48.8196C43.6945 48.8196 44.1289 48.46 44.1289 48.0152C44.1289 47.5705 43.6945 47.2109 43.1572 47.2109C42.6198 47.2109 42.1854 47.5705 42.1854 48.0152Z" stroke="#E2E2E2" stroke-width="0.802823" stroke-miterlimit="10"/>
<path d="M54.3324 43.4582C54.3324 44.3467 54.9849 45.0669 55.79 45.0669C56.5951 45.0669 57.2476 44.3467 57.2476 43.4582C57.2476 42.5697 56.5951 41.8496 55.79 41.8496C54.9849 41.8496 54.3324 42.5697 54.3324 43.4582Z" fill="#E2E2E2"/>
<path d="M36.354 36.2193C36.354 36.3665 36.4621 36.4874 36.5969 36.4874C36.7303 36.4874 36.8398 36.3681 36.8398 36.2193C36.8398 36.0705 36.7317 35.9512 36.5969 35.9512C36.4621 35.9512 36.354 36.0705 36.354 36.2193Z" fill="#E2E2E2"/>
<path d="M1.40469 33.1777C1.12575 31.8787 1.85384 30.576 3.03093 30.2682C4.20801 29.9603 5.38836 30.7639 5.6673 32.0629C5.94624 33.362 5.21814 34.6646 4.04106 34.9724C2.86397 35.2803 1.68363 34.4767 1.40469 33.1777Z" fill="#E2E2E2"/>
<path d="M7.20066 38.0958C7.20066 38.3908 7.30886 38.632 7.44359 38.632C7.57832 38.632 7.68652 38.3931 7.68652 38.0958C7.68652 37.8007 7.57832 37.5596 7.44359 37.5596C7.30886 37.5596 7.20066 37.8007 7.20066 38.0958Z" fill="#E2E2E2"/>
<path d="M17.8896 9.13972C17.8896 9.43549 18.1075 9.67593 18.3755 9.67593C18.6435 9.67593 18.8613 9.43549 18.8613 9.13972C18.8613 8.84396 18.6435 8.60352 18.3755 8.60352C18.1075 8.60352 17.8896 8.84396 17.8896 9.13972Z" fill="#E2E2E2"/>
</g>
</svg>
