<svg width="12" height="12" viewBox="0 0 12 12" fill="none" xmlns="http://www.w3.org/2000/svg">
<path d="M12 2.66667V0H9.33333V0.666667H2.66667V0H0V2.66667H0.666667V9.33333H0V12H2.66667V11.3333H9.33333V12H12V9.33333H11.3333V2.66667H12ZM10 0.666667H11.3333V2H10V0.666667ZM0.666667 0.666667H2V2H0.666667V0.666667ZM2 11.3333H0.666667V10H2V11.3333ZM11.3333 11.3333H10V10H11.3333V11.3333ZM10 9.33333H9.33333V10H2.66667V9.33333H2V2.66667H2.66667V2H9.33333V2.66667H10V9.33333ZM8.66667 3.33333V4.66667H6.66667V8.66667H5.33333V4.66667H3.33333V3.33333H8.66667Z" fill="black"/>
</svg>
