<svg width="30" height="26" viewBox="0 0 30 26" fill="none" xmlns="http://www.w3.org/2000/svg">
<path d="M15.2898 6.2948L15.2251 6.27551C15.0059 6.21012 14.8809 5.97955 14.9463 5.7601L15.2898 6.2948ZM15.2898 6.2948L15.2941 6.28988M15.2898 6.2948L15.2941 6.28988M15.2941 6.28988C15.4916 6.31395 15.6825 6.19252 15.7406 5.99635C16.2309 4.34909 17.7757 3.19805 19.4965 3.19805C19.7254 3.19805 19.911 3.01244 19.911 2.78359C19.911 2.55473 19.7253 2.36912 19.4965 2.36912C17.3401 2.36912 15.5281 3.80488 14.9463 5.76003L15.2941 6.28988Z" fill="#303030" stroke="#F9FFF9" stroke-width="0.210002"/>
<path d="M23.8284 17.948H21.9717C21.8008 17.948 21.6622 17.8094 21.6622 17.6386C21.6622 17.4677 21.8008 17.3291 21.9717 17.3291H23.8284C26.3878 17.3291 28.4702 15.2466 28.4702 12.6871C28.4702 10.1277 26.3878 8.04521 23.8284 8.04521H23.7837C23.694 8.04521 23.6087 8.0063 23.5499 7.93844C23.4911 7.87058 23.4646 7.78061 23.4774 7.69176C23.505 7.49901 23.5189 7.30537 23.5189 7.11683C23.5189 4.89865 21.7141 3.09379 19.496 3.09379C18.633 3.09379 17.8101 3.36346 17.116 3.87385C16.9635 3.98592 16.7469 3.93618 16.6587 3.76841C14.693 0.025248 9.55876 -0.47742 6.89693 2.7788C5.77561 4.1506 5.33502 5.93509 5.68807 7.67431C5.72697 7.8664 5.57998 8.04545 5.3848 8.04545H5.26079C2.70139 8.04545 0.618944 10.1279 0.618944 12.6874C0.618944 15.2468 2.70139 17.3293 5.26079 17.3293H7.11751C7.28837 17.3293 7.42697 17.4679 7.42697 17.6388C7.42697 17.8097 7.28838 17.9483 7.11751 17.9483H5.26079C2.36006 17.9483 0 15.5882 0 12.6874C0 9.86794 2.2294 7.55934 5.01787 7.43201C4.75594 5.6276 5.25682 3.80752 6.41771 2.38711C9.26757 -1.09942 14.7291 -0.708626 17.0379 3.17911C17.7744 2.71735 18.6172 2.47511 19.4959 2.47511C22.1833 2.47511 24.3128 4.76249 24.1265 7.4349C26.8892 7.58985 29.0891 9.88628 29.0891 12.6871C29.0891 15.5882 26.729 17.948 23.8283 17.948L23.8284 17.948Z" fill="#303030"/>
<path d="M6.66209 17.4632C6.66209 21.7872 10.1797 25.3049 14.5036 25.3049C18.8275 25.3049 22.3451 21.7872 22.3451 17.4632C22.3451 13.1392 18.8275 9.62156 14.5036 9.62156C10.1797 9.62156 6.66209 13.1393 6.66209 17.4632ZM7.49115 17.4632C7.49115 13.5966 10.637 10.4506 14.5036 10.4506C18.3701 10.4506 21.5161 13.5966 21.5161 17.4632C21.5161 21.3298 18.3701 24.4758 14.5036 24.4758C10.6371 24.4758 7.49115 21.3299 7.49115 17.4632Z" fill="#303030" stroke="#F9FFF9" stroke-width="0.210002"/>
<path d="M14.3137 20.5777C14.3137 20.7608 14.4622 20.9092 14.6453 20.9092C14.8283 20.9092 14.9768 20.761 14.9768 20.5777V14.687C14.9768 14.5039 14.8283 14.3554 14.6453 14.3554C14.4622 14.3554 14.3137 14.5039 14.3137 14.687V20.5777Z" fill="#303030" stroke="#483EA8" stroke-width="0.210002"/>
<path d="M14.645 15.1568L13.0671 16.7348L14.645 15.1568ZM14.645 15.1568L16.223 16.7348C16.2877 16.7995 16.3728 16.8319 16.4574 16.8319L14.645 15.1568ZM12.5981 16.7348C12.7276 16.8643 12.9376 16.8644 13.067 16.7348L14.4848 14.5277L14.4105 14.4534L14.4105 14.4535L12.5981 16.2659C12.4686 16.3955 12.4686 16.6053 12.5981 16.7348Z" fill="#303030" stroke="#483EA8" stroke-width="0.210002"/>
</svg>
